# xmcd
#
# Track frame offsets:
#	150
#	12657
#	33352
#	47519
#	63309
#	78365
#	100268
#	116547
#	133828
#	146646
#	162833
#	175120
#	193412
#
# Disc length: 2781 seconds
#
# Revision: 1
# Processed by: cddbd v1.5.2PL0 Copyright (c) Steve Scherf et al.
# Submitted via: EZCDAudioConverter 8.5.0.1
#
DISCID=b20adb0d
DTITLE=Mud Digger - Mud Digger, Vol. 8
DYEAR=2017
DGENRE=Country
TTITLE0=The Lacs Feat. Moonshine Bandits - Outside Of Town
TTITLE1=Sunny Ledfurd Feat. Colt Ford - Nickel Sized Hail and Damaging Winds
TTITLE2=Montgomery Gentry - Ain't No Law Against That
TTITLE3=Cypress Spring - Jacked Up Trucks
TTITLE4=LoCash Cowboys - You Make It Look Good
TTITLE5=Colt Ford Feat. Cypress Spring - Outshine Me (Remix)
TTITLE6=JJ Lawhorn - Last Of A Dying Breed
TTITLE7=Demun Jones Feat. Big Smo - The Pit
TTITLE8=Charlie Farley - It Ain't Over Yet
TTITLE9=JB And The Moonshine Band - Hell To Pay
TTITLE10=Devin Burris - Boom Boom
TTITLE11=Cap Bailey Feat. Colt Ford - Damnit Boy
TTITLE12=Gunnar and The Grizzly Boys - Real Country
EXTD=
EXTT0=
EXTT1=
EXTT2=
EXTT3=
EXTT4=
EXTT5=
EXTT6=
EXTT7=
EXTT8=
EXTT9=
EXTT10=
EXTT11=
EXTT12=
PLAYORDER=
